<?xml version="1.0" encoding="iso-8859-1"?>
<!-- Generator: Adobe Illustrator 19.0.0, SVG Export Plug-In . SVG Version: 6.00 Build 0)  -->
<svg version="1.1" id="Layer_1" xmlns="http://www.w3.org/2000/svg" xmlns:xlink="http://www.w3.org/1999/xlink" x="0px" y="0px"
	 viewBox="0 0 512 512" style="enable-background:new 0 0 512 512;" xml:space="preserve">
<g>
	<g>
		<path d="M422.077,340.159h-125.34c-6.922,0-12.534,5.611-12.534,12.534c0,6.922,5.612,12.534,12.534,12.534h11.185
			c-16.816,11.753-37.023,18.362-57.661,18.362c-55.47,0-100.598-45.134-100.598-100.61c0-26.895,10.866-52.698,29.96-71.537
			c12.646-0.478,23.983-6.15,31.925-14.952l41.543,41.543c5.585,5.584,12.921,8.378,20.265,8.376c6.1,0,12.189-1.959,17.292-5.817
			l40.92,40.92c2.448,2.448,5.655,3.671,8.863,3.671s6.416-1.225,8.863-3.671l32.715-32.714c2.35-2.351,3.671-5.539,3.671-8.863
			c0-3.324-1.321-6.513-3.671-8.863l-40.913-40.915c3.765-4.956,5.832-10.958,5.832-17.292c0-7.662-2.983-14.865-8.4-20.281
			L216.797,30.867c-5.417-5.416-12.618-8.399-20.276-8.399c-4.828,0-9.472,1.191-13.604,3.426L160.694,3.67
			C158.343,1.321,155.154,0,151.83,0c-3.324,0-6.513,1.321-8.863,3.671l-38.802,38.802c-4.895,4.895-4.895,12.831,0,17.726
			l22.22,22.22c-2.232,4.126-3.422,8.765-3.424,13.591c-0.004,7.667,2.979,14.874,8.4,20.295l16.18,16.18
			c-6.609,5.965-11.454,13.845-13.662,22.754c-35.954,32.735-56.49,79.037-56.49,127.74c0,62.72,33.579,117.742,83.7,148.044
			c-35.378,2.735-63.334,32.375-63.334,68.443c0,6.923,5.612,12.534,12.534,12.534h275.437c6.923,0,12.534-5.611,12.534-12.534
			c0-34.857-26.112-63.712-59.8-68.078c26.445-15.745,48.731-38.439,63.791-66.161h19.824c6.923,0,12.534-5.611,12.534-12.534
			C434.611,345.77,428.999,340.159,422.077,340.159z M177.891,186.418c-11.18,0-20.276-9.096-20.276-20.276
			c0-11.18,9.096-20.276,20.276-20.276c11.18,0,20.276,9.096,20.276,20.276C198.167,177.322,189.071,186.418,177.891,186.418z
			 M355.42,239.936l-14.988,14.988l-31.84-31.84l14.988-14.988L355.42,239.936z M193.972,48.596c1.405-1.406,3.693-1.406,5.099,0
			l121.73,121.718c0.874,0.874,1.058,1.873,1.058,2.556s-0.183,1.682-1.068,2.566l-5.747,5.759
			c-0.046,0.043-0.091,0.088-0.137,0.132c-0.064,0.061-0.133,0.114-0.195,0.177l-32.715,32.714c-0.04,0.04-0.074,0.084-0.113,0.124
			l-5.96,5.959c-1.413,1.409-3.704,1.414-5.108,0.009l-48.011-48.012c0.274-2.014,0.429-4.066,0.429-6.154
			c0-25.003-20.341-45.344-45.344-45.344c-2.088,0-4.14,0.154-6.154,0.429l-22.648-22.649c-0.875-0.875-1.058-1.873-1.058-2.556
			c0-0.679,0.183-1.67,1.059-2.543L193.972,48.596z M143.265,63.844l-12.51-12.51L151.83,30.26l12.51,12.51L143.265,63.844z
			 M371.358,486.932H124.66c5.398-17.952,22.08-31.069,41.767-31.069h163.164C349.278,455.864,365.961,468.98,371.358,486.932z
			 M250.261,430.78c-81.497,0-147.801-66.302-147.801-147.801c0-35.348,12.664-69.213,35.299-95.765
			c3.535,6.704,8.695,12.424,14.959,16.621c-18.049,22.234-28.124,50.18-28.124,79.143c0,69.299,56.374,125.678,125.666,125.678
			c36.09,0,71.109-16.134,94.902-43.43h27.824C345.771,405.601,299.564,430.78,250.261,430.78z"/>
	</g>
</g>
<g>
</g>
<g>
</g>
<g>
</g>
<g>
</g>
<g>
</g>
<g>
</g>
<g>
</g>
<g>
</g>
<g>
</g>
<g>
</g>
<g>
</g>
<g>
</g>
<g>
</g>
<g>
</g>
<g>
</g>
</svg>
